<svg width="33" height="33" viewBox="0 0 33 33" fill="none" xmlns="http://www.w3.org/2000/svg">
<path d="M15.1252 28.375H15.125C14.5573 28.3752 14.0106 28.1608 13.5944 27.7748C13.2606 27.4653 13.0306 27.0638 12.9305 26.625H20.0691C19.9821 27.0076 19.7957 27.3638 19.525 27.6558C19.1412 28.0696 18.6161 28.324 18.0538 28.3688L17.8668 28.375H15.1252ZM25.6252 17.5505V17.6685L25.6779 17.7741L28.1832 22.7846L28.1832 22.7846C28.2564 22.931 28.293 23.0929 28.29 23.2565C28.2869 23.4201 28.2442 23.5805 28.1656 23.724C28.087 23.8675 27.9747 23.9899 27.8385 24.0805C27.7055 24.1689 27.5536 24.2247 27.3951 24.2432L27.2644 24.25H5.72291H5.72276C5.55907 24.25 5.39781 24.2104 5.25279 24.1345C5.10778 24.0585 4.98334 23.9486 4.89013 23.814C4.79693 23.6795 4.73773 23.5243 4.71763 23.3619C4.69801 23.2034 4.71617 23.0426 4.77053 22.8926L4.8228 22.7733L7.32237 17.7741L7.37516 17.6685V17.5505V12.375C7.37516 9.9549 8.33654 7.63392 10.0478 5.92265C11.7591 4.21138 14.0801 3.25 16.5002 3.25C18.8661 3.24996 21.1396 4.16888 22.841 5.81292C24.5414 7.45594 25.5376 9.69481 25.6198 12.0578L25.6252 12.3792V17.5505Z" stroke="black"/>
</svg>
