<svg width="14" height="16" viewBox="0 0 14 16" fill="none" xmlns="http://www.w3.org/2000/svg">
<path d="M13.8368 6.91842V12.2994C13.8368 12.7072 13.6749 13.0982 13.3865 13.3865C13.0982 13.6749 12.7072 13.8368 12.2994 13.8368H1.53743C1.12968 13.8368 0.738625 13.6749 0.450302 13.3865C0.161978 13.0982 0 12.7072 0 12.2994V6.91842H13.8368ZM9.99327 0C10.1972 0 10.3927 0.0809892 10.5368 0.225151C10.681 0.369313 10.762 0.564838 10.762 0.768713V1.53743H12.2994C12.7072 1.53743 13.0982 1.69941 13.3865 1.98773C13.6749 2.27605 13.8368 2.6671 13.8368 3.07485V5.38099H0V3.07485C0 2.6671 0.161978 2.27605 0.450302 1.98773C0.738625 1.69941 1.12968 1.53743 1.53743 1.53743H3.07485V0.768713C3.07485 0.564838 3.15584 0.369313 3.3 0.225151C3.44417 0.0809892 3.63969 0 3.84357 0C4.04744 0 4.24297 0.0809892 4.38713 0.225151C4.53129 0.369313 4.61228 0.564838 4.61228 0.768713V1.53743H9.22456V0.768713C9.22456 0.564838 9.30555 0.369313 9.44971 0.225151C9.59387 0.0809892 9.7894 0 9.99327 0Z" fill="#2A2727"/>
</svg>
