<svg width="24" height="25" viewBox="0 0 24 25" fill="none" xmlns="http://www.w3.org/2000/svg">
<path d="M20.9998 19.2109V17.565C20.9998 16.7472 20.5019 16.0118 19.7425 15.708L17.7084 14.8944C16.7426 14.5081 15.6419 14.9266 15.1768 15.8569L14.9998 16.2109C14.9998 16.2109 12.4998 15.7109 10.4998 13.7109C8.49976 11.7109 7.99976 9.21094 7.99976 9.21094L8.35377 9.03393C9.28414 8.56875 9.70261 7.46807 9.3163 6.50229L8.50264 4.46816C8.19892 3.70884 7.4635 3.21094 6.64569 3.21094H4.99976C3.89519 3.21094 2.99976 4.10637 2.99976 5.21094C2.99976 14.0475 10.1632 21.2109 18.9998 21.2109C20.1043 21.2109 20.9998 20.3155 20.9998 19.2109Z" stroke="#9D9D9D" stroke-width="1.5" stroke-linejoin="round"/>
</svg>
