<svg width="41" height="41" viewBox="0 0 41 41" fill="none" xmlns="http://www.w3.org/2000/svg">
<g clip-path="url(#clip0_1427_16536)">
<path d="M32.0043 30.2264L30.957 34.1351C30.8612 34.4984 30.6907 34.8376 30.4562 35.1311C30.2217 35.4247 29.9286 35.666 29.5955 35.8397C29.2623 36.0133 28.8966 36.1155 28.5217 36.1396C28.1469 36.1638 27.7711 36.1094 27.4184 35.9799C23.5259 34.47 20.0418 32.068 17.2461 28.9671C14.6341 26.1232 12.6803 22.7391 11.5234 19.055C10.2322 15.066 9.89882 10.8289 10.5503 6.68704C10.6142 6.31802 10.7544 5.96637 10.9617 5.65447C11.169 5.34257 11.439 5.07725 11.7545 4.87542C12.07 4.67359 12.4241 4.53966 12.7942 4.48216C13.1642 4.42466 13.5422 4.44485 13.9041 4.54144L17.8128 5.58878C18.4468 5.75198 18.9998 6.14015 19.3687 6.68092C19.7377 7.22169 19.8974 7.87817 19.8182 8.528C19.648 9.82308 19.6248 11.1333 19.7492 12.4335C19.7995 12.9469 19.7017 13.4638 19.4672 13.9232C19.2327 14.3826 18.8715 14.7652 18.4262 15.0256L16.3282 16.2369C17.3089 19.9958 19.286 23.4202 22.0509 26.149L24.149 24.9377C24.5971 24.6823 25.109 24.5607 25.6241 24.5874C26.1392 24.614 26.6359 24.7877 27.0552 25.088C28.1191 25.8458 29.2653 26.4809 30.472 26.981C31.081 27.2399 31.5736 27.7136 31.8561 28.312C32.1386 28.9103 32.1914 29.5917 32.0043 30.2264Z" stroke="black" stroke-width="2.69773" stroke-linecap="round" stroke-linejoin="round"/>
</g>
<defs>
<clipPath id="clip0_1427_16536">
<rect width="32.3728" height="32.3728" fill="white" transform="translate(9.24731 0.501953) rotate(15)"/>
</clipPath>
</defs>
</svg>
