<svg width="36" height="28" viewBox="0 0 36 28" fill="none" xmlns="http://www.w3.org/2000/svg">
<path d="M12.3081 21H15.8081V15.75H21.0581V12.25H15.8081V7H12.3081V12.25H7.05811V15.75H12.3081V21ZM3.55811 28C2.59561 28 1.77194 27.6576 1.08711 26.9727C0.402272 26.2879 0.0592721 25.4637 0.0581055 24.5V3.5C0.0581055 2.5375 0.401106 1.71383 1.08711 1.029C1.77311 0.344166 2.59677 0.00116667 3.55811 0H24.5581C25.5206 0 26.3449 0.343 27.0309 1.029C27.7169 1.715 28.0593 2.53867 28.0581 3.5V11.375L35.0581 4.375V23.625L28.0581 16.625V24.5C28.0581 25.4625 27.7157 26.2868 27.0309 26.9727C26.346 27.6588 25.5218 28.0012 24.5581 28H3.55811Z" fill="white"/>
</svg>
