<svg width="24" height="25" viewBox="0 0 24 25" fill="none" xmlns="http://www.w3.org/2000/svg">
<g clip-path="url(#clip0_2_3003)">
<path fill-rule="evenodd" clip-rule="evenodd" d="M7.19526 6.63984C6.93491 6.90019 6.93491 7.3223 7.19526 7.58265L13.8619 14.2493C14.1223 14.5097 14.5444 14.5097 14.8047 14.2493C15.0651 13.989 15.0651 13.5669 14.8047 13.3065L8.13807 6.63984C7.87772 6.37949 7.45561 6.37949 7.19526 6.63984Z" fill="#585BA8"/>
<path fill-rule="evenodd" clip-rule="evenodd" d="M14.8047 6.63984C15.0651 6.90019 15.0651 7.3223 14.8047 7.58265L8.13807 14.2493C7.87772 14.5097 7.45561 14.5097 7.19526 14.2493C6.93491 13.989 6.93491 13.5669 7.19526 13.3065L13.8619 6.63984C14.1223 6.37949 14.5444 6.37949 14.8047 6.63984Z" fill="#585BA8"/>
<circle cx="11" cy="10.4446" r="9" stroke="#585BA8" stroke-width="2"/>
</g>
<defs>
<clipPath id="clip0_2_3003">
<rect width="24" height="24" fill="white" transform="translate(0 0.44458)"/>
</clipPath>
</defs>
</svg>
