<svg width="25" height="19" viewBox="0 0 25 19" fill="none" xmlns="http://www.w3.org/2000/svg">
<path d="M24.3297 0.523885C24.1651 0.357884 23.9692 0.226124 23.7534 0.136209C23.5376 0.0462927 23.3061 0 23.0723 0C22.8385 0 22.607 0.0462927 22.3911 0.136209C22.1753 0.226124 21.9794 0.357884 21.8148 0.523885L8.62017 13.7362L3.07667 8.17499C2.90572 8.00985 2.70392 7.88001 2.48279 7.79286C2.26166 7.70572 2.02553 7.66298 1.78788 7.66709C1.55024 7.67121 1.31573 7.72208 1.09775 7.81683C0.879764 7.91157 0.682576 8.04832 0.517442 8.21927C0.352309 8.39021 0.222463 8.59201 0.135318 8.81314C0.0481739 9.03427 0.00543665 9.2704 0.00954818 9.50805C0.0136597 9.74569 0.0645392 9.9802 0.159281 10.1982C0.254023 10.4162 0.390771 10.6134 0.56172 10.7785L7.3627 17.5795C7.52735 17.7455 7.72323 17.8772 7.93905 17.9671C8.15488 18.0571 8.38637 18.1034 8.62017 18.1034C8.85398 18.1034 9.08547 18.0571 9.30129 17.9671C9.51712 17.8772 9.713 17.7455 9.87765 17.5795L24.3297 3.12739C24.5095 2.96154 24.653 2.76025 24.7511 2.53621C24.8492 2.31217 24.8999 2.07023 24.8999 1.82564C24.8999 1.58104 24.8492 1.33911 24.7511 1.11506C24.653 0.891021 24.5095 0.689734 24.3297 0.523885Z" fill="white"/>
</svg>
