<svg width="21" height="22" viewBox="0 0 21 22" fill="none" xmlns="http://www.w3.org/2000/svg">
<path d="M2.84873 11.568L10.8047 3.61203C11.1879 3.229 11.6427 2.92518 12.1432 2.71792C12.6438 2.51066 13.1802 2.40402 13.722 2.40409C14.2638 2.40416 14.8002 2.51094 15.3007 2.71833C15.8012 2.92571 16.2559 3.22965 16.639 3.61278C17.022 3.99591 17.3258 4.45074 17.5331 4.95128C17.7403 5.45183 17.847 5.9883 17.8469 6.53006C17.8468 7.07182 17.7401 7.60826 17.5327 8.10876C17.3253 8.60925 17.0214 9.064 16.6382 9.44703L7.09223 18.993C6.74035 19.3449 6.2631 19.5426 5.76548 19.5426C5.26785 19.5426 4.7906 19.3449 4.43872 18.993C4.08685 18.6412 3.88917 18.1639 3.88917 17.6663C3.88917 17.1687 4.08685 16.6914 4.43872 16.3395L12.9242 7.85403C13.1229 7.64077 13.2311 7.3587 13.226 7.06725C13.2208 6.7758 13.1028 6.49772 12.8967 6.2916C12.6905 6.08548 12.4125 5.96741 12.121 5.96227C11.8296 5.95713 11.5475 6.06531 11.3342 6.26403L2.84873 14.7495C2.07496 15.5233 1.64026 16.5728 1.64026 17.667C1.64026 18.7613 2.07496 19.8108 2.84873 20.5845C3.62249 21.3583 4.67195 21.793 5.76622 21.793C6.8605 21.793 7.90996 21.3583 8.68372 20.5845L18.2282 11.037C19.4008 9.83684 20.0529 8.22277 20.0431 6.54491C20.0333 4.86704 19.3625 3.26068 18.176 2.07423C16.9896 0.887775 15.3832 0.21691 13.7053 0.207139C12.0275 0.197369 10.4134 0.849479 9.21322 2.02203L1.25872 9.97653C1.06 10.1898 0.95182 10.4719 0.956962 10.7633C0.962105 11.0548 1.08017 11.3328 1.28629 11.539C1.49241 11.7451 1.77049 11.8631 2.06194 11.8683C2.35339 11.8734 2.63546 11.7653 2.84873 11.5665V11.568Z" fill="#00C2C2"/>
</svg>
