<svg width="48" height="48" viewBox="0 0 48 48" fill="none" xmlns="http://www.w3.org/2000/svg">
<path d="M24 45.5C12.14 45.5 2.5 35.86 2.5 24C2.5 12.14 12.14 2.5 24 2.5C35.86 2.5 45.5 12.14 45.5 24C45.5 35.86 35.86 45.5 24 45.5ZM24 5.5C13.8 5.5 5.5 13.8 5.5 24C5.5 34.2 13.8 42.5 24 42.5C34.2 42.5 42.5 34.2 42.5 24C42.5 13.8 34.2 5.5 24 5.5Z" fill="#838384"/>
<path d="M18.34 31.1587C17.96 31.1587 17.58 31.0187 17.28 30.7187C16.7 30.1387 16.7 29.1787 17.28 28.5987L28.6 17.2787C29.18 16.6988 30.14 16.6988 30.72 17.2787C31.3 17.8587 31.3 18.8187 30.72 19.3987L19.4 30.7187C19.12 31.0187 18.72 31.1587 18.34 31.1587Z" fill="#838384"/>
<path d="M29.66 31.1587C29.28 31.1587 28.9 31.0187 28.6 30.7187L17.28 19.3987C16.7 18.8187 16.7 17.8587 17.28 17.2787C17.86 16.6988 18.82 16.6988 19.4 17.2787L30.72 28.5987C31.3 29.1787 31.3 30.1387 30.72 30.7187C30.42 31.0187 30.04 31.1587 29.66 31.1587Z" fill="#838384"/>
</svg>
