<svg width="24" height="24" viewBox="0 0 24 24" fill="none" xmlns="http://www.w3.org/2000/svg">
<path d="M6.92407 16.272C5.75074 16.272 4.62546 15.8261 3.79578 15.0325C2.96611 14.2389 2.5 13.1626 2.5 12.0403C2.5 10.9179 2.96611 9.84159 3.79578 9.04799C4.62546 8.25439 5.75074 7.80855 6.92407 7.80855C7.20119 6.57399 8.01187 5.48908 9.17778 4.79247C9.75508 4.44755 10.4022 4.20834 11.0822 4.0885C11.7622 3.96866 12.4618 3.97055 13.141 4.09404C13.8203 4.21753 14.4658 4.46022 15.0408 4.80824C15.6158 5.15626 16.109 5.60281 16.4922 6.12238C16.8755 6.64194 17.1413 7.22436 17.2744 7.83638C17.4076 8.4484 17.4055 9.07802 17.2683 9.68931H18.2087C19.0816 9.68931 19.9187 10.0361 20.536 10.6533C21.1532 11.2706 21.5 12.1077 21.5 12.9807C21.5 13.8536 21.1532 14.6907 20.536 15.308C19.9187 15.9252 19.0816 16.272 18.2087 16.272H17.2683" stroke="#1E1F1F" stroke-width="1.5" stroke-linecap="round" stroke-linejoin="round"/>
<path d="M8.80469 13.4501L11.6258 10.6289L14.447 13.4501" stroke="#1E1F1F" stroke-width="1.5" stroke-linecap="round" stroke-linejoin="round"/>
<path d="M11.625 10.6289V19.0923" stroke="#1E1F1F" stroke-width="1.5" stroke-linecap="round" stroke-linejoin="round"/>
</svg>
