<svg fill="none" height="21" viewBox="0 0 20 21" width="20" xmlns="http://www.w3.org/2000/svg"><path clip-rule="evenodd" d="m6.19526 6.63984c-.26035.26035-.26035.68246 0 .94281l6.66664 6.66665c.2604.2604.6825.2604.9428 0 .2604-.2603.2604-.6824 0-.9428l-6.66663-6.66666c-.26035-.26035-.68246-.26035-.94281 0z" fill="#585BA8" fill-rule="evenodd"/><path clip-rule="evenodd" d="m13.8047 6.63984c.2604.26035.2604.68246 0 .94281l-6.66663 6.66665c-.26035.2604-.68246.2604-.94281 0-.26035-.2603-.26035-.6824 0-.9428l6.66664-6.66666c.2604-.26035.6825-.26035.9428 0z" fill="#585BA8" fill-rule="evenodd"/><circle cx="10" cy="10.4446" r="9" stroke="#585BA8" stroke-width="2"/></svg>