<svg width="20" height="21" viewBox="0 0 20 21" fill="none" xmlns="http://www.w3.org/2000/svg">
<path fill-rule="evenodd" clip-rule="evenodd" d="M6.19526 6.63984C5.93491 6.90019 5.93491 7.3223 6.19526 7.58265L12.8619 14.2493C13.1223 14.5097 13.5444 14.5097 13.8047 14.2493C14.0651 13.989 14.0651 13.5669 13.8047 13.3065L7.13807 6.63984C6.87772 6.37949 6.45561 6.37949 6.19526 6.63984Z" fill="#D20606"/>
<path fill-rule="evenodd" clip-rule="evenodd" d="M13.8047 6.63984C14.0651 6.90019 14.0651 7.3223 13.8047 7.58265L7.13807 14.2493C6.87772 14.5097 6.45561 14.5097 6.19526 14.2493C5.93491 13.989 5.93491 13.5669 6.19526 13.3065L12.8619 6.63984C13.1223 6.37949 13.5444 6.37949 13.8047 6.63984Z" fill="#D20606"/>
<circle cx="10" cy="10.4446" r="9" stroke="#D20606" stroke-width="2"/>
</svg>
