<svg width="18" height="18" viewBox="0 0 18 18" fill="none" xmlns="http://www.w3.org/2000/svg">
<path fill-rule="evenodd" clip-rule="evenodd" d="M0.0629999 2.9322C-6.03497e-08 3.2634 0 3.6612 0 4.455V10.8C0 14.1939 -1.07288e-07 15.8913 1.0548 16.9452C2.1087 18 3.8061 18 7.2 18H10.8C14.1939 18 15.8913 18 16.9452 16.9452C18 15.8913 18 14.1939 18 10.8V8.8182C18 6.4494 18 5.2641 17.307 4.4946C17.2434 4.42357 17.1761 4.35597 17.1054 4.2921C16.3359 3.6 15.1506 3.6 12.7818 3.6H12.4452C11.4075 3.6 10.8882 3.6 10.404 3.4623C10.1383 3.38634 9.8822 3.28004 9.6408 3.1455C9.2016 2.9016 8.8344 2.5335 8.1 1.8L7.605 1.305C7.3584 1.0584 7.236 0.936 7.1064 0.828C6.549 0.365976 5.86524 0.0827495 5.1444 0.0153C4.977 -3.68804e-08 4.8024 0 4.455 0C3.6603 0 3.2634 -6.03497e-08 2.9322 0.0629999C2.22106 0.197301 1.5669 0.542823 1.05508 1.05449C0.543251 1.56615 0.197524 2.2211 0.0629999 2.9322ZM12.8538 0.9C13.1832 0.9 13.3488 0.9 13.4865 0.918C14.4027 1.044 15.1317 1.7667 15.2991 2.7C15.1621 2.66897 15.0236 2.64464 14.8842 2.6271C14.3082 2.5515 13.581 2.5515 12.6792 2.5515H12.3786C11.5308 2.5515 11.2086 2.547 10.9161 2.4606C10.7458 2.4101 10.5821 2.33972 10.4283 2.2509C10.1619 2.0979 9.9315 1.8657 9.3321 1.2447L9 0.9H12.8556H12.8538ZM9.9 6.525C9.72098 6.525 9.54929 6.59612 9.4227 6.7227C9.29612 6.84929 9.225 7.02098 9.225 7.2C9.225 7.37902 9.29612 7.55071 9.4227 7.6773C9.54929 7.80388 9.72098 7.875 9.9 7.875H14.4C14.579 7.875 14.7507 7.80388 14.8773 7.6773C15.0039 7.55071 15.075 7.37902 15.075 7.2C15.075 7.02098 15.0039 6.84929 14.8773 6.7227C14.7507 6.59612 14.579 6.525 14.4 6.525H9.9Z" fill="#838384"/>
</svg>
