<svg width="25" height="26" viewBox="0 0 25 26" fill="none" xmlns="http://www.w3.org/2000/svg">
<path d="M11.2341 3.53027H2.88498C2.25231 3.53027 1.64556 3.78161 1.1982 4.22898C0.750837 4.67635 0.499512 5.28312 0.499512 5.9158V22.6145C0.499512 23.2472 0.750837 23.8539 1.1982 24.3013C1.64556 24.7487 2.25231 25 2.88498 25H19.5832C20.2159 25 20.8227 24.7487 21.27 24.3013C21.7174 23.8539 21.9687 23.2472 21.9687 22.6145V14.2652" stroke="#00C2C2" stroke-opacity="0.6" stroke-linecap="round" stroke-linejoin="round"/>
<path d="M20.1814 1.74109C20.6559 1.26658 21.2995 1 21.9705 1C22.6416 1 23.2851 1.26658 23.7596 1.74109C24.2341 2.2156 24.5007 2.85917 24.5007 3.53023C24.5007 4.20129 24.2341 4.84487 23.7596 5.31938L12.4286 16.6506L7.65771 17.8434L8.85045 13.0723L20.1814 1.74109Z" stroke="#00C2C2" stroke-opacity="0.6" stroke-linecap="round" stroke-linejoin="round"/>
</svg>
