<svg width="951" height="777" viewBox="0 0 951 777" fill="none" xmlns="http://www.w3.org/2000/svg">
<g id="No Results">
<g id="circle">
<path id="Stroke 1" d="M30.2102 357.346V365.413" stroke="#EEDADA" stroke-width="2.61818" stroke-linecap="round"/>
<g id="Group 8">
<path id="Stroke 2" d="M12.0923 361.717L18.6842 368.503" stroke="#EEDADA" stroke-width="2.61818" stroke-linecap="round"/>
<path id="Stroke 4" d="M4.38281 379.781H13.7036" stroke="#EEDADA" stroke-width="2.61818" stroke-linecap="round"/>
<path id="Stroke 6" d="M11.3379 398.166L17.9298 391.38" stroke="#EEDADA" stroke-width="2.61818" stroke-linecap="round"/>
</g>
<path id="Stroke 9" d="M30.2102 400.37V392.303" stroke="#EEDADA" stroke-width="2.61818" stroke-linecap="round"/>
<path id="Stroke 10" d="M43.6551 394.991L38.2771 389.613" stroke="#EEDADA" stroke-width="2.61818" stroke-linecap="round"/>
<path id="Stroke 11" d="M54.411 381.548H46.344" stroke="#EEDADA" stroke-width="2.61818" stroke-linecap="round"/>
<path id="Stroke 12" d="M49.0333 362.725L43.6553 368.103" stroke="#EEDADA" stroke-width="2.61818" stroke-linecap="round"/>
<path id="Stroke 13" d="M463.139 5.0874V10.4654" stroke="#EEDADA" stroke-width="2.61818" stroke-linecap="round"/>
<path id="Stroke 15" d="M447.005 21.2212H452.383" stroke="#EEDADA" stroke-width="2.61818" stroke-linecap="round"/>
<path id="Stroke 16" d="M463.139 37.3555V31.9775" stroke="#EEDADA" stroke-width="2.61818" stroke-linecap="round"/>
<path id="Stroke 17" d="M476.584 21.2212H471.206" stroke="#EEDADA" stroke-width="2.61818" stroke-linecap="round"/>
<path id="Stroke 18" d="M151.216 230.962V239.029" stroke="#EEDADA" stroke-width="2.61818" stroke-linecap="round"/>
<path id="Stroke 19" d="M127.014 255.164H135.081" stroke="#EEDADA" stroke-width="2.61818" stroke-linecap="round"/>
<path id="Stroke 20" d="M151.216 276.675V268.608" stroke="#EEDADA" stroke-width="2.61818" stroke-linecap="round"/>
<path id="Stroke 21" d="M172.728 255.164H164.661" stroke="#EEDADA" stroke-width="2.61818" stroke-linecap="round"/>
<g id="Group 42">
<path id="Stroke 22" d="M730.032 524.168C736.458 524.168 741.67 529.381 741.67 535.809C741.67 542.239 736.458 547.45 730.032 547.45C723.606 547.45 718.394 542.239 718.394 535.809" stroke="#EEDADA" stroke-width="2.61818" stroke-linecap="round"/>
<path id="Fill 26" fill-rule="evenodd" clip-rule="evenodd" d="M783.294 418.556C790.205 416.4 800.797 407.949 803.249 398.856C805.472 406.894 814.793 416.4 823.203 417.119C813.736 420.471 804.685 430.43 803.249 438.253C802.272 430.279 789.753 419.718 783.294 418.556Z" fill="#EBECEE"/>
<path id="Fill 28" fill-rule="evenodd" clip-rule="evenodd" d="M73.968 520.581C77.4242 519.503 82.7182 515.279 83.944 510.732C85.0558 514.749 89.7151 519.503 93.9201 519.864C89.1877 521.538 84.6631 526.518 83.944 530.429C83.4555 526.442 77.196 521.161 73.968 520.581Z" fill="#EBECEE"/>
<path id="Fill 30" fill-rule="evenodd" clip-rule="evenodd" d="M138.106 146.521C138.106 151.508 134.065 155.548 129.082 155.548C124.096 155.548 120.058 151.508 120.058 146.521C120.058 141.536 124.096 137.495 129.082 137.495C134.065 137.495 138.106 141.536 138.106 146.521Z" fill="#D1D8DF"/>
<path id="Fill 32" fill-rule="evenodd" clip-rule="evenodd" d="M740.694 170.759C740.694 179.091 733.939 185.845 725.611 185.845C717.279 185.845 710.526 179.091 710.526 170.759C710.526 162.426 717.279 155.672 725.611 155.672C733.939 155.672 740.694 162.426 740.694 170.759Z" fill="#EBECEE"/>
<path id="Fill 34" fill-rule="evenodd" clip-rule="evenodd" d="M949.617 129.883C949.617 136.494 944.261 141.851 937.655 141.851C931.046 141.851 925.69 136.494 925.69 129.883C925.69 123.272 931.046 117.916 937.655 117.916C944.261 117.916 949.617 123.272 949.617 129.883Z" fill="#EBECEE"/>
<path id="Stroke 36" fill-rule="evenodd" clip-rule="evenodd" d="M306.757 688.811C306.757 692.978 303.381 696.356 299.215 696.356C295.051 696.356 291.675 692.978 291.675 688.811C291.675 684.644 295.051 681.267 299.215 681.267C303.381 681.267 306.757 684.644 306.757 688.811Z" stroke="#EEDADA" stroke-width="2.61818" stroke-linecap="round"/>
<path id="Stroke 38" fill-rule="evenodd" clip-rule="evenodd" d="M302.27 88.5323C302.27 93.5193 298.23 97.5587 293.246 97.5587C288.263 97.5587 284.222 93.5193 284.222 88.5323C284.222 83.5476 288.263 79.5059 293.246 79.5059C298.23 79.5059 302.27 83.5476 302.27 88.5323Z" stroke="#EEDADA" stroke-width="2.61818" stroke-linecap="round"/>
<path id="Stroke 40" fill-rule="evenodd" clip-rule="evenodd" d="M532.458 772.355C526.692 774.55 520.238 771.652 518.044 765.886C515.851 760.119 518.745 753.661 524.514 751.469C530.278 749.274 536.732 752.17 538.925 757.938C541.122 763.706 538.225 770.161 532.458 772.355Z" stroke="#EEDADA" stroke-width="2.61818" stroke-linecap="round"/>
</g>
</g>
<g id="search">
<g id="documents">
<path id="Fill 1" fill-rule="evenodd" clip-rule="evenodd" d="M529.023 559.021H308.513C292.992 559.021 280.288 546.279 280.288 530.706V216.248C280.288 200.675 292.992 187.939 308.513 187.939H529.023C544.55 187.939 557.254 200.675 557.254 216.248V530.706C557.254 546.279 544.55 559.021 529.023 559.021Z" fill="#E0E2EE"/>
<path id="Fill 3" fill-rule="evenodd" clip-rule="evenodd" d="M510.199 572.465H289.689C274.169 572.465 261.464 559.723 261.464 544.15V229.692C261.464 214.119 274.169 201.384 289.689 201.384H510.199C525.726 201.384 538.431 214.119 538.431 229.692V544.15C538.431 559.723 525.726 572.465 510.199 572.465Z" fill="#E8EBF2"/>
<path id="Fill 5" fill-rule="evenodd" clip-rule="evenodd" d="M491.89 583.081H270.924C255.371 583.081 242.64 570.392 242.64 554.883V241.727C242.64 226.219 255.371 213.536 270.924 213.536H491.89C507.449 213.536 520.179 226.219 520.179 241.727V554.883C520.179 570.392 507.449 583.081 491.89 583.081Z" fill="#D8DBEA"/>
<path id="Fill 8" fill-rule="evenodd" clip-rule="evenodd" d="M491.89 583.081H270.924C255.371 583.081 242.64 570.392 242.64 554.883V241.727C242.64 226.219 255.371 213.536 270.924 213.536H491.89C507.449 213.536 520.179 226.219 520.179 241.727V554.883C520.179 570.392 507.449 583.081 491.89 583.081Z" fill="#F1F2F7"/>
<path id="Fill 11" fill-rule="evenodd" clip-rule="evenodd" d="M460.041 308.945H296.831C292.17 308.945 288.354 305.315 288.354 300.881C288.354 296.44 292.17 292.811 296.831 292.811H460.041C464.702 292.811 468.517 296.44 468.517 300.881C468.517 305.315 464.702 308.945 460.041 308.945Z" fill="#E0E2EE"/>
<path id="Fill 13" fill-rule="evenodd" clip-rule="evenodd" d="M460.041 357.346H296.831C292.17 357.346 288.354 353.716 288.354 349.282C288.354 344.842 292.17 341.212 296.831 341.212H460.041C464.702 341.212 468.517 344.842 468.517 349.282C468.517 353.716 464.702 357.346 460.041 357.346Z" fill="#E0E2EE"/>
<path id="Fill 15" fill-rule="evenodd" clip-rule="evenodd" d="M460.041 405.747H296.831C292.17 405.747 288.354 402.118 288.354 397.683C288.354 393.249 292.17 389.613 296.831 389.613H460.041C464.702 389.613 468.517 393.249 468.517 397.683C468.517 402.118 464.702 405.747 460.041 405.747Z" fill="#E0E2EE"/>
<path id="Fill 17" fill-rule="evenodd" clip-rule="evenodd" d="M460.041 454.149H296.831C292.17 454.149 288.354 450.519 288.354 446.085C288.354 441.644 292.17 438.015 296.831 438.015H460.041C464.702 438.015 468.517 441.644 468.517 446.085C468.517 450.519 464.702 454.149 460.041 454.149Z" fill="#E0E2EE"/>
<path id="Fill 19" fill-rule="evenodd" clip-rule="evenodd" d="M382.024 502.553H296.867C292.186 502.553 288.354 498.923 288.354 494.489C288.354 490.049 292.186 486.419 296.867 486.419H382.024C386.705 486.419 390.536 490.049 390.536 494.489C390.536 498.923 386.705 502.553 382.024 502.553Z" fill="#E0E2EE"/>
</g>
<g id="ic:baseline-history">
<path id="Vector" d="M506.95 435.375C479.671 435.375 453.51 446.211 434.221 465.5C414.932 484.789 404.095 510.95 404.095 538.229H369.811L414.267 582.685L415.067 584.285L461.237 538.229H426.952C426.952 494.002 462.722 458.231 506.95 458.231C551.177 458.231 586.947 494.002 586.947 538.229C586.947 582.456 551.177 618.227 506.95 618.227C484.893 618.227 464.894 609.198 450.494 594.684L434.266 610.913C443.79 620.49 455.117 628.086 467.591 633.264C480.066 638.443 493.443 641.1 506.95 641.083C534.228 641.083 560.389 630.247 579.678 610.958C598.967 591.669 609.804 565.508 609.804 538.229C609.804 510.95 598.967 484.789 579.678 465.5C560.389 446.211 534.228 435.375 506.95 435.375ZM495.521 492.516V549.657L544.434 578.685L552.662 564.857L512.664 541.086V492.516H495.521Z" fill="#E0E2EE"/>
</g>
</g>
</g>
</svg>
