<svg width="68" height="69" viewBox="0 0 68 69" fill="none" xmlns="http://www.w3.org/2000/svg">
<circle cx="33.9998" cy="34.9798" r="26.5818" stroke="#66676B" stroke-opacity="0.9" stroke-width="2.47273"/>
<g clip-path="url(#clip0_1374_14859)">
<path d="M33.988 38.5153C35.084 38.5153 36.1692 38.2995 37.1817 37.8801C38.1942 37.4607 39.1142 36.846 39.8892 36.071C40.6641 35.2961 41.2788 34.3761 41.6982 33.3635C42.1176 32.351 42.3335 31.2658 42.3335 30.1699C42.3335 29.0739 42.1176 27.9887 41.6982 26.9762C41.2788 25.9637 40.6641 25.0437 39.8892 24.2688C39.1142 23.4938 38.1942 22.8791 37.1817 22.4597C36.1692 22.0403 35.084 21.8244 33.988 21.8244C31.7747 21.8244 29.652 22.7037 28.0869 24.2688C26.5218 25.8338 25.6426 27.9565 25.6426 30.1699C25.6426 32.3832 26.5218 34.5059 28.0869 36.071C29.652 37.6361 31.7747 38.5153 33.988 38.5153ZM34.001 18.9072C36.4438 18.9064 38.819 19.7095 40.7601 21.1926C42.7012 22.6756 44.1004 24.7562 44.7417 27.1134C45.3829 29.4705 45.2307 31.9732 44.3085 34.2352C43.3863 36.4973 41.7454 38.393 39.6388 39.6299C46.4784 41.6885 51.6155 47.4524 52.5372 54.6109C52.6244 55.2916 52.1181 55.9091 51.4059 55.9926C50.6956 56.076 50.0465 55.5938 49.9594 54.9132C48.9579 47.1427 42.2278 41.2916 34.0659 41.2916C25.8596 41.2916 19.0423 47.1538 18.0427 54.9132C17.9555 55.5938 17.3064 56.076 16.5961 55.9926C15.884 55.9091 15.3777 55.2916 15.4648 54.6109C16.3847 47.4821 21.5496 41.7256 28.4003 39.6485C26.2874 38.4172 24.6389 36.5241 23.7098 34.262C22.7808 31.9999 22.6227 29.4947 23.2603 27.1337C23.8978 24.7728 25.2953 22.6876 27.2368 21.2006C29.1783 19.7136 31.5555 18.9076 34.001 18.9072Z" fill="#66676B" fill-opacity="0.9"/>
</g>
<defs>
<clipPath id="clip0_1374_14859">
<rect width="37.0909" height="37.0909" fill="white" transform="translate(15.4551 18.9072)"/>
</clipPath>
</defs>
</svg>
