<svg width="25" height="18" viewBox="0 0 25 18" fill="none" xmlns="http://www.w3.org/2000/svg">
<path fill-rule="evenodd" clip-rule="evenodd" d="M23.2434 2.526L13.7739 10.368C13.5048 10.5909 13.1663 10.7129 12.8169 10.7129C12.4674 10.7129 12.1289 10.5909 11.8599 10.368L2.39486 2.526C2.34407 2.67887 2.31824 2.83892 2.31836 3V15C2.31836 15.3978 2.47639 15.7794 2.7577 16.0607C3.039 16.342 3.42053 16.5 3.81836 16.5H21.8184C22.2162 16.5 22.5977 16.342 22.879 16.0607C23.1603 15.7794 23.3184 15.3978 23.3184 15V3C23.319 2.839 23.2936 2.67895 23.2434 2.526ZM3.81836 0H21.8184C22.614 0 23.3771 0.31607 23.9397 0.87868C24.5023 1.44129 24.8184 2.20435 24.8184 3V15C24.8184 15.7956 24.5023 16.5587 23.9397 17.1213C23.3771 17.6839 22.614 18 21.8184 18H3.81836C3.02271 18 2.25965 17.6839 1.69704 17.1213C1.13443 16.5587 0.818359 15.7956 0.818359 15V3C0.818359 2.20435 1.13443 1.44129 1.69704 0.87868C2.25965 0.31607 3.02271 0 3.81836 0ZM3.50336 1.5L11.8674 8.4045C12.1352 8.62576 12.4716 8.74716 12.8191 8.74798C13.1665 8.7488 13.5034 8.62899 13.7724 8.409L22.2204 1.5H3.50336Z" fill="#00C2C2"/>
</svg>
