<svg width="36" height="36" viewBox="0 0 36 36" fill="none" xmlns="http://www.w3.org/2000/svg">
<path d="M14.6481 22.5676C14.3696 22.5676 14.0911 22.465 13.8713 22.2452C12.6695 21.0434 12.01 19.4459 12.01 17.7605C12.01 14.2578 14.8532 11.4146 18.356 11.4146C20.0414 11.4146 21.6389 12.0741 22.8406 13.2758C23.0458 13.481 23.1631 13.7595 23.1631 14.0526C23.1631 14.3457 23.0458 14.6242 22.8406 14.8294L15.4248 22.2452C15.205 22.465 14.9265 22.5676 14.6481 22.5676ZM18.356 13.6129C16.0697 13.6129 14.2084 15.4742 14.2084 17.7605C14.2084 18.4933 14.3989 19.1968 14.7506 19.8123L20.4078 14.1552C19.7922 13.8034 19.0888 13.6129 18.356 13.6129Z" fill="white"/>
<path d="M8.97594 27.302C8.72679 27.302 8.46299 27.214 8.25781 27.0382C6.68964 25.7045 5.28268 24.063 4.08091 22.1578C2.52739 19.7396 2.52739 15.7972 4.08091 13.3643C7.65692 7.76578 12.8597 4.5415 18.3557 4.5415C21.5799 4.5415 24.7602 5.65534 27.5448 7.75112C28.0285 8.11752 28.1311 8.80634 27.7647 9.28998C27.3983 9.77362 26.7095 9.87621 26.2258 9.50982C23.8223 7.6925 21.0963 6.73987 18.3557 6.73987C13.6218 6.73987 9.09319 9.5831 5.92754 14.5514C4.82835 16.2661 4.82835 19.2559 5.92754 20.9707C7.02672 22.6854 8.28712 24.1656 9.67942 25.3674C10.1338 25.7631 10.1924 26.4519 9.79667 26.9209C9.59149 27.1701 9.28371 27.302 8.97594 27.302Z" fill="white"/>
<path d="M18.3559 30.9801C16.4067 30.9801 14.5014 30.5844 12.6694 29.8077C12.1125 29.5732 11.8487 28.9283 12.0832 28.3714C12.3177 27.8145 12.9626 27.5507 13.5195 27.7852C15.073 28.4447 16.6998 28.7818 18.3412 28.7818C23.0751 28.7818 27.6037 25.9385 30.7694 20.9702C31.8685 19.2555 31.8685 16.2657 30.7694 14.551C30.315 13.8329 29.8167 13.144 29.2891 12.4992C28.9081 12.0302 28.9813 11.3414 29.4503 10.9457C29.9193 10.5646 30.6081 10.6232 31.0038 11.1069C31.5754 11.8104 32.1323 12.5725 32.6306 13.3639C34.1842 15.7821 34.1842 19.7245 32.6306 22.1574C29.0546 27.7559 23.8518 30.9801 18.3559 30.9801Z" fill="white"/>
<path d="M19.3671 24.0193C18.8541 24.0193 18.3851 23.6529 18.2825 23.1253C18.1653 22.5244 18.561 21.9529 19.1619 21.8503C20.774 21.5572 22.1224 20.2088 22.4155 18.5967C22.5327 17.9958 23.1043 17.6147 23.7052 17.7173C24.3061 17.8346 24.7018 18.4062 24.5845 19.007C24.1156 21.5425 22.0931 23.5503 19.5723 24.0193C19.499 24.0047 19.4404 24.0193 19.3671 24.0193Z" fill="white"/>
<path d="M3.70001 33.5161C3.42155 33.5161 3.14309 33.4135 2.92326 33.1937C2.49824 32.7687 2.49824 32.0652 2.92326 31.6402L13.8711 20.6923C14.2962 20.2673 14.9996 20.2673 15.4247 20.6923C15.8497 21.1173 15.8497 21.8208 15.4247 22.2458L4.47677 33.1937C4.25693 33.4135 3.97847 33.5161 3.70001 33.5161Z" fill="white"/>
<path d="M22.0638 15.1519C21.7853 15.1519 21.5069 15.0493 21.287 14.8294C20.862 14.4044 20.862 13.7009 21.287 13.2759L32.2349 2.32804C32.6599 1.90302 33.3634 1.90302 33.7884 2.32804C34.2134 2.75306 34.2134 3.45654 33.7884 3.88156L22.8405 14.8294C22.6207 15.0493 22.3422 15.1519 22.0638 15.1519Z" fill="white"/>
</svg>
