<svg width="25" height="25" viewBox="0 0 25 25" fill="none" xmlns="http://www.w3.org/2000/svg">
<path d="M9.57011 13.256C7.08166 11.3955 5.30829 9.34903 4.33999 8.19855C4.04025 7.84241 3.94203 7.58178 3.88298 7.12268C3.68076 5.55068 3.57966 4.76468 4.0406 4.25728C4.50155 3.74988 5.31669 3.74988 6.94698 3.74988H18.4783C20.1086 3.74988 20.9237 3.74988 21.3846 4.25728C21.8456 4.76468 21.7445 5.55068 21.5423 7.12269C21.4832 7.58179 21.385 7.84242 21.0852 8.19855C20.1156 9.3505 18.3387 11.4006 15.8452 13.2634C15.6196 13.432 15.4709 13.7066 15.4433 14.0113C15.1963 16.7419 14.9685 18.2375 14.8267 18.9941C14.5979 20.2156 12.8658 20.9505 11.9386 21.6062C11.3867 21.9965 10.7169 21.5319 10.6454 20.9277C10.5091 19.776 10.2523 17.4363 9.97192 14.0113C9.94674 13.7038 9.79751 13.426 9.57011 13.256Z" stroke="#08080C" stroke-opacity="0.5" stroke-width="1.5" stroke-linecap="round" stroke-linejoin="round"/>
</svg>
