<svg width="65" height="65" viewBox="0 0 65 65" fill="none" xmlns="http://www.w3.org/2000/svg">
<rect width="64.4133" height="64.4133" rx="32.2066" fill="#00C2C2" fill-opacity="0.08"/>
<path d="M56.5 43.4289V43.4286C56.5013 40.7184 55.5544 38.4221 53.6489 36.5115C51.7435 34.6009 49.4534 33.6512 46.7502 33.6511C44.0483 33.6524 41.7586 34.6022 39.8531 36.5116C37.9477 38.4208 37.0001 40.717 37 43.4286L56.5 43.4289ZM56.5 43.4289C56.5 46.1407 55.5523 48.4377 53.6468 50.3484C51.7414 52.259 49.4519 53.208 46.7502 53.2067H46.75M56.5 43.4289L46.75 53.2067M46.75 53.2067C44.0468 53.2067 41.7574 52.257 39.8533 50.3464M46.75 53.2067L39.8533 50.3464M39.8533 50.3464C37.9491 48.4357 37.0014 46.1393 37 43.4289L39.8533 50.3464ZM26.2508 43.9289C26.714 43.9287 27.1505 43.8118 27.5516 43.5803C27.9742 43.3364 28.2874 42.9722 28.4952 42.5134L34.4482 30.6707L35.7961 33.3738C34.6358 34.6592 33.709 36.123 33.0157 37.7622C32.2706 39.524 31.9 41.4146 31.9 43.4289C31.9 44.5262 32.0151 45.6149 32.2451 46.6945C32.4212 47.5211 32.6739 48.3216 33.0028 49.0956H20.1C19.1065 49.0956 18.2687 48.747 17.5594 48.0359C16.8502 47.3247 16.5013 46.4832 16.5 45.4841V35.7067H20.5594L23.9536 42.5136C24.1629 42.971 24.4765 43.3345 24.8978 43.5795C25.3062 43.817 25.7616 43.9304 26.2508 43.9289ZM26.2508 43.9289C26.2506 43.9289 26.2503 43.9289 26.25 43.9289V43.4289L26.2517 43.9289C26.2514 43.9289 26.2511 43.9289 26.2508 43.9289ZM46.806 44.8097L47.16 45.1647L47.514 44.8097L52.1778 40.1334L52.5299 39.7803L52.1778 39.4272L50.7428 37.9883L50.3887 37.6333L50.0347 37.9883L45.371 42.6647L45.0188 43.0178L45.371 43.3708L46.806 44.8097ZM42.902 29.0473C41.8568 29.3367 40.8558 29.7235 39.8995 30.2079L36.7438 23.7834L36.7425 23.7808C36.5234 23.3415 36.1889 23.006 35.7503 22.7861C35.3403 22.5805 34.905 22.4761 34.45 22.4761C33.995 22.4761 33.5597 22.5805 33.1497 22.7861C32.7111 23.006 32.3766 23.3415 32.1575 23.7808L32.1572 23.7815L26.2466 35.6825L24.3912 32.003C24.391 32.0026 24.3908 32.0022 24.3906 32.0018C24.1788 31.5776 23.8684 31.2351 23.4667 30.9812C23.0638 30.7266 22.6217 30.5956 22.15 30.5956H16.5V20.8178C16.5 19.8206 16.8486 18.98 17.5591 18.2687C18.27 17.5571 19.1082 17.2079 20.1003 17.2067H52.9C53.8933 17.2067 54.7318 17.5557 55.4426 18.2684C56.1534 18.9811 56.5012 19.8217 56.5 20.8172V20.8178V32.1903C55.3006 31.133 53.9685 30.2971 52.5046 29.6846C50.6833 28.9226 48.7639 28.5414 46.7504 28.54H46.75C45.4094 28.54 44.1261 28.7084 42.902 29.0473Z" stroke="#00C2C2"/>
</svg>
