<svg width="65" height="65" viewBox="0 0 65 65" fill="none" xmlns="http://www.w3.org/2000/svg">
<rect width="64.4133" height="64.4133" rx="32.2066" fill="#00C2C2" fill-opacity="0.08"/>
<path d="M34.2536 49.3122L34.2524 49.3109L24.5962 38.3499L26.3998 37.0305C26.8944 36.6687 27.4459 36.4769 28.0672 36.4527C28.6835 36.4286 29.2436 36.583 29.7615 36.9198L29.7615 36.9199L29.7704 36.9254L32.1454 38.3996L32.9091 38.8736V37.9747V21.6751C32.9091 21.328 33.0237 21.059 33.255 20.8341C33.4879 20.6078 33.7707 20.4913 34.1369 20.4904C34.5037 20.4905 34.7863 20.6068 35.0188 20.8335C35.2506 21.0597 35.3645 21.3286 35.3636 21.6739V21.6751V36.8375V37.3375H35.8636H38.4545H38.9545V36.8375V28.414C38.9545 28.0668 39.0692 27.7978 39.3005 27.573C39.5334 27.3466 39.8163 27.2302 40.1825 27.2292C40.5493 27.2294 40.8318 27.3457 41.0642 27.5724C41.2961 27.7985 41.4099 28.0675 41.4091 28.4128V28.414V36.8375V37.3375H41.9091H44.5H45V36.8375V30.0987C45 29.7515 45.1146 29.4826 45.3459 29.2577C45.5789 29.0313 45.8617 28.9149 46.228 28.914C46.5947 28.9141 46.8773 29.0304 47.1097 29.2571C47.3416 29.4832 47.4554 29.7522 47.4545 30.0975V30.0987V36.8375V37.3375H47.9545H50.5455H51.0455V36.8375V33.4681C51.0455 33.121 51.1601 32.852 51.3914 32.6271C51.6243 32.4007 51.9072 32.2843 52.2734 32.2834C52.6402 32.2835 52.9227 32.3998 53.1552 32.6265C53.387 32.8527 53.5008 33.1216 53.5 33.4669V33.4681V45.2611C53.5 46.9766 52.88 48.4348 51.6213 49.6625C50.3622 50.8906 48.8612 51.5 47.0909 51.5H39.1455C38.2076 51.5 37.3121 51.3107 36.4546 50.9312C35.5999 50.553 34.8677 50.0143 34.2536 49.3122ZM22.0458 31.2834H22.0455C20.4711 31.2834 19.1657 30.7618 18.0969 29.7204C17.0253 28.6761 16.4989 27.4356 16.5 25.9715V25.9711C16.5 25.0852 16.6802 24.3435 17.0211 23.7286C17.3791 23.083 18.2554 21.9708 19.6969 20.3667L19.6972 20.3664L22.0429 17.7516L24.3914 20.4059L24.3917 20.4062C25.865 22.0686 26.7489 23.1946 27.0924 23.8131C27.4178 24.3991 27.5909 25.1124 27.5909 25.9711C27.5909 27.4321 27.0587 28.6724 25.9734 29.7185C24.8883 30.7645 23.5886 31.2844 22.0458 31.2834ZM17.748 30.0785C16.5815 28.9418 15.9989 27.5727 16 25.9711L22.0455 31.7834C20.347 31.7834 18.9145 31.2151 17.748 30.0785Z" stroke="#00C2C2"/>
</svg>
