<svg width="31" height="32" viewBox="0 0 31 32" fill="none" xmlns="http://www.w3.org/2000/svg">
<path d="M31 16.3088C31 14.997 30.8945 14.0398 30.6661 13.0471H15.8163V18.9678H24.5328C24.3571 20.4392 23.4082 22.6551 21.2993 24.1441L21.2697 24.3423L25.9649 28.0114L26.2902 28.0441C29.2777 25.2609 31 21.166 31 16.3088Z" fill="#4285F4"/>
<path d="M15.8163 31.9086C20.0867 31.9086 23.6717 30.4903 26.2902 28.0441L21.2993 24.1441C19.9637 25.0836 18.1711 25.7395 15.8163 25.7395C11.6338 25.7395 8.08395 22.9564 6.81853 19.1097L6.63304 19.1256L1.75088 22.9369L1.68703 23.1159C4.28791 28.3276 9.63033 31.9086 15.8163 31.9086Z" fill="#34A853"/>
<path d="M6.81853 19.1097C6.48463 18.117 6.2914 17.0533 6.2914 15.9543C6.2914 14.8551 6.48463 13.7916 6.80096 12.7989L6.79212 12.5875L1.84877 8.71491L1.68703 8.79252C0.615086 10.9552 0 13.3839 0 15.9543C0 18.5247 0.615086 20.9532 1.68703 23.1159L6.81853 19.1097Z" fill="#FBBC05"/>
<path d="M15.8163 6.16895C18.7862 6.16895 20.7896 7.46301 21.9319 8.54443L26.3956 4.14811C23.6542 1.57771 20.0867 0 15.8163 0C9.63033 0 4.28791 3.58082 1.68703 8.79252L6.80096 12.7989C8.08395 8.95212 11.6338 6.16895 15.8163 6.16895Z" fill="#EB4335"/>
</svg>
