<svg width="65" height="65" viewBox="0 0 65 65" fill="none" xmlns="http://www.w3.org/2000/svg">
<rect y="0.293335" width="64.4133" height="64.4133" rx="32.2066" fill="#00C2C2" fill-opacity="0.08"/>
<path d="M29.6972 38.4573H27.2485H26.7804L26.7496 38.9244L26.022 49.9542C24.226 50.3074 22.2744 50.3185 20.4192 49.952L19.5965 38.9201L19.562 38.4573H19.0979H16.5054C16.5383 36.084 16.6818 33.5048 17.1971 31.3838L29.6972 38.4573ZM29.6972 38.4573C29.6897 36.0414 29.6293 33.4251 29.1616 31.2847L29.1616 31.2847C28.8861 30.024 28.4774 28.9855 27.9456 28.2725C27.4233 27.5725 26.8194 27.163 25.9166 27.0231C25.9166 27.0231 25.9166 27.0231 25.9166 27.0231L24.5731 26.815L23.7209 26.683L24.2588 26.009L25.1069 24.9464C25.7197 24.1786 26.1491 23.0539 26.1491 21.7836C26.1491 19.2016 24.5541 17.5254 23.0792 17.5254H23.0696L23.0696 17.5253L22.759 17.5193C21.4183 17.7187 20.0096 19.3898 20.0096 21.7835C20.0096 23.084 20.4605 24.2201 21.1008 24.9918C21.1008 24.9918 21.1008 24.9918 21.1008 24.9918L21.9564 26.0225L22.4991 26.6763L21.664 26.8332L20.3476 27.0807C19.5635 27.2281 18.9836 27.6339 18.4593 28.3533C17.9285 29.082 17.5021 30.1295 17.1971 31.3837L29.6972 38.4573ZM41.9039 46.1151L43.9547 44.0643L45.0873 45.1969L40.2495 50.0344L35.4118 45.1969L36.5444 44.0643L38.5952 46.1151L39.4487 46.9687V45.7616V21.98V20.7729L38.5952 21.6264L36.5444 23.6772L35.4118 22.5446L40.2495 17.7071L45.0873 22.5446L43.9547 23.6773L41.9039 21.6264L41.0503 20.7728V21.98V45.7616V46.9687L41.9039 46.1151Z" stroke="#00C2C2"/>
</svg>
