<svg width="25" height="24" viewBox="0 0 25 24" fill="none" xmlns="http://www.w3.org/2000/svg">
<path d="M8.94163 22.27H9.07163C13.5116 22.27 15.6516 20.52 16.0216 16.6C16.0616 16.19 15.7616 15.82 15.3416 15.78C14.9416 15.74 14.5616 16.05 14.5216 16.46C14.2316 19.6 12.7516 20.77 9.06163 20.77H8.93163C4.86163 20.77 3.42163 19.33 3.42163 15.26V8.73998C3.42163 4.66998 4.86163 3.22998 8.93163 3.22998H9.06163C12.7716 3.22998 14.2516 4.41998 14.5216 7.61998C14.5716 8.02998 14.9216 8.33998 15.3416 8.29998C15.7616 8.26998 16.0616 7.89998 16.0316 7.48998C15.6916 3.50998 13.5416 1.72998 9.07163 1.72998H8.94163C4.03163 1.72998 1.93163 3.82998 1.93163 8.73998V15.26C1.93163 20.17 4.03163 22.27 8.94163 22.27Z" fill="#00C2C2"/>
<path d="M9.18152 12.75H20.5615C20.9715 12.75 21.3115 12.41 21.3115 12C21.3115 11.59 20.9715 11.25 20.5615 11.25H9.18152C8.77152 11.25 8.43152 11.59 8.43152 12C8.43152 12.41 8.77152 12.75 9.18152 12.75Z" fill="#00C2C2"/>
<path d="M18.3317 16.1001C18.5217 16.1001 18.7117 16.0301 18.8617 15.8801L22.2117 12.5301C22.5017 12.2401 22.5017 11.7601 22.2117 11.4701L18.8617 8.12009C18.5717 7.83009 18.0917 7.83009 17.8017 8.12009C17.5117 8.41009 17.5117 8.89009 17.8017 9.18009L20.6217 12.0001L17.8017 14.8201C17.5117 15.1101 17.5117 15.5901 17.8017 15.8801C17.9417 16.0301 18.1417 16.1001 18.3317 16.1001Z" fill="#00C2C2"/>
</svg>
