<svg width="25" height="24" viewBox="0 0 25 24" fill="none" xmlns="http://www.w3.org/2000/svg">
<path d="M18.2684 22.75C17.1384 22.75 15.9484 22.48 14.7184 21.96C13.5184 21.45 12.3084 20.75 11.1284 19.9C9.95836 19.04 8.82836 18.08 7.75836 17.03C6.69836 15.96 5.73836 14.83 4.88836 13.67C4.02836 12.47 3.33836 11.27 2.84836 10.11C2.32836 8.87 2.06836 7.67 2.06836 6.54C2.06836 5.76 2.20836 5.02 2.47836 4.33C2.75836 3.62 3.20836 2.96 3.81836 2.39C4.58836 1.63 5.46836 1.25 6.40836 1.25C6.79836 1.25 7.19836 1.34 7.53836 1.5C7.92836 1.68 8.25836 1.95 8.49836 2.31L10.8184 5.58C11.0284 5.87 11.1884 6.15 11.2984 6.43C11.4284 6.73 11.4984 7.03 11.4984 7.32C11.4984 7.7 11.3884 8.07 11.1784 8.42C11.0284 8.69 10.7984 8.98 10.5084 9.27L9.82836 9.98C9.83836 10.01 9.84836 10.03 9.85836 10.05C9.97836 10.26 10.2184 10.62 10.6784 11.16C11.1684 11.72 11.6284 12.23 12.0884 12.7C12.6784 13.28 13.1684 13.74 13.6284 14.12C14.1984 14.6 14.5684 14.84 14.7884 14.95L14.7684 15L15.4984 14.28C15.8084 13.97 16.1084 13.74 16.3984 13.59C16.9484 13.25 17.6484 13.19 18.3484 13.48C18.6084 13.59 18.8884 13.74 19.1884 13.95L22.5084 16.31C22.8784 16.56 23.1484 16.88 23.3084 17.26C23.4584 17.64 23.5284 17.99 23.5284 18.34C23.5284 18.82 23.4184 19.3 23.2084 19.75C22.9984 20.2 22.7384 20.59 22.4084 20.95C21.8384 21.58 21.2184 22.03 20.4984 22.32C19.8084 22.6 19.0584 22.75 18.2684 22.75ZM6.40836 2.75C5.85836 2.75 5.34836 2.99 4.85836 3.47C4.39836 3.9 4.07836 4.37 3.87836 4.88C3.66836 5.4 3.56836 5.95 3.56836 6.54C3.56836 7.47 3.78836 8.48 4.22836 9.52C4.67836 10.58 5.30836 11.68 6.10836 12.78C6.90836 13.88 7.81836 14.95 8.81836 15.96C9.81836 16.95 10.8984 17.87 12.0084 18.68C13.0884 19.47 14.1984 20.11 15.2984 20.57C17.0084 21.3 18.6084 21.47 19.9284 20.92C20.4384 20.71 20.8884 20.39 21.2984 19.93C21.5284 19.68 21.7084 19.41 21.8584 19.09C21.9784 18.84 22.0384 18.58 22.0384 18.32C22.0384 18.16 22.0084 18 21.9284 17.82C21.8984 17.76 21.8384 17.65 21.6484 17.52L18.3284 15.16C18.1284 15.02 17.9484 14.92 17.7784 14.85C17.5584 14.76 17.4684 14.67 17.1284 14.88C16.9284 14.98 16.7484 15.13 16.5484 15.33L15.7884 16.08C15.3984 16.46 14.7984 16.55 14.3384 16.38L14.0684 16.26C13.6584 16.04 13.1784 15.7 12.6484 15.25C12.1684 14.84 11.6484 14.36 11.0184 13.74C10.5284 13.24 10.0384 12.71 9.52836 12.12C9.05836 11.57 8.71836 11.1 8.50836 10.71L8.38836 10.41C8.32836 10.18 8.30836 10.05 8.30836 9.91C8.30836 9.55 8.43836 9.23 8.68836 8.98L9.43836 8.2C9.63836 8 9.78836 7.81 9.88836 7.64C9.96836 7.51 9.99836 7.4 9.99836 7.3C9.99836 7.22 9.96836 7.1 9.91836 6.98C9.84836 6.82 9.73836 6.64 9.59836 6.45L7.27836 3.17C7.17836 3.03 7.05836 2.93 6.90836 2.86C6.74836 2.79 6.57836 2.75 6.40836 2.75ZM14.7684 15.01L14.6084 15.69L14.8784 14.99C14.8284 14.98 14.7884 14.99 14.7684 15.01Z" fill="#00C2C2"/>
</svg>
