<svg width="66" height="66" viewBox="0 0 66 66" fill="none" xmlns="http://www.w3.org/2000/svg">
<rect x="0.897461" y="0.735596" width="64.4133" height="64.4133" rx="32.2066" fill="#00C2C2" fill-opacity="0.08"/>
<path d="M30.6087 19.7121C27.2555 19.5702 24.6649 19.9564 24.6649 19.9564C23.0291 20.0734 19.8943 20.9905 19.8943 26.3463C19.8943 31.6567 19.8596 38.2032 19.8943 40.8132C19.8943 42.4076 20.8816 46.127 24.2987 46.3263C28.4523 46.5686 35.9338 46.6201 39.3666 46.3263C40.2854 46.2745 43.3447 45.5531 43.7319 42.2246C44.133 38.7764 44.0532 36.3799 44.0532 35.8095" stroke="#00C2C2" stroke-width="1.5" stroke-linecap="round" stroke-linejoin="round"/>
<path d="M26.563 34.4673H31.9314" stroke="#00C2C2" stroke-width="1.5" stroke-linecap="round"/>
<path d="M26.563 39.8356H37.2997" stroke="#00C2C2" stroke-width="1.5" stroke-linecap="round"/>
<path d="M43.9178 21.9242L39.3884 19.3669C38.7537 19.0086 37.9548 19.1229 37.5806 19.7263C37.1098 20.4855 37.365 21.3103 37.6656 22.119C38.0814 23.2378 38.2893 23.7972 38.0915 24.245C38.0605 24.315 38.0228 24.3818 37.9788 24.4445C37.6975 24.8453 37.1112 24.9562 35.9384 25.178C35.0674 25.3428 34.2735 25.505 33.8458 26.3412C33.5224 26.9733 33.8372 27.7165 34.4719 28.0748L39.0012 30.6321C39.6359 30.9905 40.4348 30.8761 40.8091 30.2728C41.107 29.7923 41.2013 29.1997 41.0063 28.6406C40.9175 28.3857 40.8182 28.1334 40.7241 27.8801C40.3082 26.7613 40.1004 26.2019 40.2982 25.7541C40.3292 25.684 40.3669 25.6172 40.4109 25.5545C40.6921 25.1538 41.2785 25.0429 42.4512 24.8211C43.3132 24.658 44.1212 24.4841 44.5439 23.6579C44.8672 23.0257 44.5525 22.2826 43.9178 21.9242Z" stroke="#00C2C2" stroke-width="1.2" stroke-linecap="round"/>
</svg>
