<svg width="66" height="66" viewBox="0 0 66 66" fill="none" xmlns="http://www.w3.org/2000/svg">
<rect x="0.702148" y="0.735596" width="64.4133" height="64.4133" rx="32.2066" fill="#00C2C2" fill-opacity="0.08"/>
<path d="M30.4136 19.7121C27.0604 19.5702 24.4699 19.9564 24.4699 19.9564C22.8341 20.0734 19.6992 20.9905 19.6992 26.3463C19.6993 31.6567 19.6646 38.2032 19.6992 40.8132C19.6992 42.4076 20.6865 46.127 24.1037 46.3263C28.2572 46.5686 35.7388 46.6201 39.1716 46.3263C40.0903 46.2745 43.1496 45.5531 43.5368 42.2246C43.938 38.7764 43.8581 36.3799 43.8581 35.8095" stroke="#00C2C2" stroke-width="1.5" stroke-linecap="round" stroke-linejoin="round"/>
<path d="M26.3682 34.4673H31.7365" stroke="#00C2C2" stroke-width="1.5" stroke-linecap="round"/>
<path d="M26.3682 39.8356H37.1049" stroke="#00C2C2" stroke-width="1.5" stroke-linecap="round"/>
<path d="M43.7227 21.9242L39.1934 19.3669C38.5587 19.0086 37.7597 19.1229 37.3855 19.7263C36.9147 20.4855 37.17 21.3103 37.4705 22.119C37.8864 23.2378 38.0942 23.7972 37.8964 24.245C37.8654 24.315 37.8277 24.3818 37.7837 24.4445C37.5025 24.8453 36.9161 24.9562 35.7434 25.178C34.8723 25.3428 34.0785 25.505 33.6507 26.3412C33.3273 26.9733 33.6421 27.7165 34.2768 28.0748L38.8062 30.6321C39.4409 30.9905 40.2397 30.8761 40.614 30.2728C40.9119 29.7923 41.0062 29.1997 40.8113 28.6406C40.7224 28.3857 40.6232 28.1334 40.529 27.8801C40.1132 26.7613 39.9053 26.2019 40.1031 25.7541C40.1341 25.684 40.1718 25.6172 40.2158 25.5545C40.4971 25.1538 41.0834 25.0429 42.2562 24.8211C43.1181 24.658 43.9261 24.4841 44.3489 23.6579C44.6721 23.0257 44.3574 22.2826 43.7227 21.9242Z" stroke="#00C2C2" stroke-width="1.2" stroke-linecap="round"/>
</svg>
