<svg width="21" height="20" viewBox="0 0 21 20" fill="none" xmlns="http://www.w3.org/2000/svg">
<path fill-rule="evenodd" clip-rule="evenodd" d="M9.65685 3.27615C10.025 3.27615 10.3235 3.57462 10.3235 3.94282V13.3709C10.3235 13.7391 10.025 14.0376 9.65685 14.0376C9.28866 14.0376 8.99019 13.7391 8.99019 13.3709V3.94282C8.99019 3.57463 9.28866 3.27615 9.65685 3.27615Z" fill="#585BA8"/>
<ellipse cx="10" cy="15.3137" rx="1" ry="1" fill="#585BA8"/>
<path d="M19 10L20.5452 4.43711L14.955 5.88039L19 10ZM18.3126 5.40104C18.0154 4.86371 17.6649 4.35325 17.2643 3.87786L16.4996 4.5223C16.8581 4.94767 17.1716 5.40438 17.4376 5.88513L18.3126 5.40104ZM17.2643 3.87786C15.8204 2.16464 13.8175 1.01686 11.6094 0.637309L11.4399 1.62286C13.4156 1.96246 15.2077 2.98941 16.4996 4.5223L17.2643 3.87786ZM11.6094 0.637309C9.40123 0.257755 7.13001 0.67085 5.19695 1.80361L5.70254 2.66639C7.43212 1.65287 9.46426 1.28325 11.4399 1.62286L11.6094 0.637309ZM5.19695 1.80361C3.26389 2.93638 1.7934 4.71591 1.04527 6.82782L1.98787 7.16173C2.65725 5.27213 3.97296 3.67992 5.70254 2.66639L5.19695 1.80361ZM1.04527 6.82782C0.29713 8.93973 0.319498 11.2481 1.10842 13.3451L2.04437 12.993C1.3385 11.1167 1.31848 9.05133 1.98787 7.16173L1.04527 6.82782ZM1.10842 13.3451C1.89734 15.4421 3.40204 17.1928 5.35669 18.2879L5.84546 17.4155C4.09656 16.4357 2.75025 14.8693 2.04437 12.993L1.10842 13.3451ZM5.35669 18.2879C7.31133 19.383 9.59013 19.752 11.7905 19.3297L11.602 18.3477C9.63327 18.7255 7.59435 18.3953 5.84546 17.4155L5.35669 18.2879ZM11.7905 19.3297C13.9908 18.9075 15.9711 17.7211 17.3815 15.9802L16.6045 15.3507C15.3426 16.9084 13.5707 17.9698 11.602 18.3477L11.7905 19.3297Z" fill="#585BA8"/>
</svg>
