<svg width="24" height="25" viewBox="0 0 24 25" fill="none" xmlns="http://www.w3.org/2000/svg">
<g clip-path="url(#clip0_2_2943)">
<path fill-rule="evenodd" clip-rule="evenodd" d="M10.6569 3.27615C11.025 3.27615 11.3235 3.57462 11.3235 3.94282V13.3709C11.3235 13.7391 11.025 14.0376 10.6569 14.0376C10.2887 14.0376 9.99019 13.7391 9.99019 13.3709V3.94282C9.99019 3.57463 10.2887 3.27615 10.6569 3.27615Z" fill="#585BA8"/>
<ellipse cx="11" cy="15.3137" rx="1" ry="1" fill="#585BA8"/>
<path d="M20 10L21.5452 4.43711L15.955 5.88039L20 10ZM19.3126 5.40104C19.0154 4.86371 18.6649 4.35325 18.2643 3.87786L17.4996 4.5223C17.8581 4.94767 18.1716 5.40438 18.4376 5.88513L19.3126 5.40104ZM18.2643 3.87786C16.8204 2.16464 14.8175 1.01686 12.6094 0.637309L12.4399 1.62286C14.4156 1.96246 16.2077 2.98941 17.4996 4.5223L18.2643 3.87786ZM12.6094 0.637309C10.4012 0.257755 8.13001 0.67085 6.19695 1.80361L6.70254 2.66639C8.43212 1.65287 10.4643 1.28325 12.4399 1.62286L12.6094 0.637309ZM6.19695 1.80361C4.26389 2.93638 2.7934 4.71591 2.04527 6.82782L2.98787 7.16173C3.65725 5.27213 4.97296 3.67992 6.70254 2.66639L6.19695 1.80361ZM2.04527 6.82782C1.29713 8.93973 1.3195 11.2481 2.10842 13.3451L3.04437 12.993C2.3385 11.1167 2.31848 9.05133 2.98787 7.16173L2.04527 6.82782ZM2.10842 13.3451C2.89734 15.4421 4.40204 17.1928 6.35669 18.2879L6.84546 17.4155C5.09656 16.4357 3.75025 14.8693 3.04437 12.993L2.10842 13.3451ZM6.35669 18.2879C8.31133 19.383 10.5901 19.752 12.7905 19.3297L12.602 18.3477C10.6333 18.7255 8.59435 18.3953 6.84546 17.4155L6.35669 18.2879ZM12.7905 19.3297C14.9908 18.9075 16.9711 17.7211 18.3815 15.9802L17.6045 15.3507C16.3426 16.9084 14.5707 17.9698 12.602 18.3477L12.7905 19.3297Z" fill="#585BA8"/>
</g>
<defs>
<clipPath id="clip0_2_2943">
<rect width="24" height="24" fill="white" transform="translate(0 0.44458)"/>
</clipPath>
</defs>
</svg>
