<svg width="21" height="21" viewBox="0 0 21 21" fill="none" xmlns="http://www.w3.org/2000/svg">
<path fill-rule="evenodd" clip-rule="evenodd" d="M8.71289 2.74988C5.39918 2.74988 2.71289 5.43617 2.71289 8.74988C2.71289 12.0636 5.39918 14.7499 8.71289 14.7499C12.0266 14.7499 14.7129 12.0636 14.7129 8.74988C14.7129 5.43617 12.0266 2.74988 8.71289 2.74988ZM0.712891 8.74988C0.712891 4.3316 4.29461 0.749878 8.71289 0.749878C13.1312 0.749878 16.7129 4.3316 16.7129 8.74988C16.7129 13.1682 13.1312 16.7499 8.71289 16.7499C4.29461 16.7499 0.712891 13.1682 0.712891 8.74988Z" fill="#08080C" fill-opacity="0.5"/>
<path fill-rule="evenodd" clip-rule="evenodd" d="M13.0058 13.0428C13.3963 12.6522 14.0295 12.6522 14.42 13.0428L20.42 19.0428C20.8105 19.4333 20.8105 20.0665 20.42 20.457C20.0295 20.8475 19.3963 20.8475 19.0058 20.457L13.0058 14.457C12.6153 14.0665 12.6153 13.4333 13.0058 13.0428Z" fill="#08080C" fill-opacity="0.5"/>
</svg>
