<svg width="65" height="65" viewBox="0 0 65 65" fill="none" xmlns="http://www.w3.org/2000/svg">
<rect y="0.293335" width="64.4133" height="64.4133" rx="32.2066" fill="#00C2C2" fill-opacity="0.08"/>
<g clip-path="url(#clip0_261_3599)">
<path d="M34.5121 22.9908L34.5122 22.9905C34.817 22.2781 34.4875 21.4522 33.7752 21.1456C33.0616 20.836 32.2323 21.1675 31.9254 21.8837C31.9254 21.8837 31.9254 21.8838 31.9254 21.8838L30.1435 26.0418C28.786 26.2167 27.7344 27.3742 27.7344 28.7812C27.7344 30.3086 28.9727 31.5469 30.5 31.5469C32.0273 31.5469 33.2656 30.3086 33.2656 28.7812C33.2656 28.167 33.0579 27.6104 32.7252 27.1595L34.5121 22.9908ZM20.2642 21.125C19.5383 22.6184 19.125 24.2914 19.125 26.0625C19.125 32.3352 24.2273 37.4375 30.5 37.4375C36.7727 37.4375 41.875 32.3352 41.875 26.0625C41.875 24.2914 41.4617 22.6184 40.7358 21.125H41.375C43.0977 21.125 44.5 22.5273 44.5 24.25V42.375C44.5 44.0977 43.0977 45.5 41.375 45.5H19.625C17.9023 45.5 16.5 44.0977 16.5 42.375V24.25C16.5 22.5273 17.9023 21.125 19.625 21.125H20.2642ZM39.0625 26.0625C39.0625 30.7917 35.2292 34.625 30.5 34.625C25.7708 34.625 21.9375 30.7917 21.9375 26.0625C21.9375 21.3333 25.7708 17.5 30.5 17.5C35.2292 17.5 39.0625 21.3333 39.0625 26.0625Z" stroke="#00C2C2"/>
</g>
<defs>
<clipPath id="clip0_261_3599">
<rect width="29" height="29" fill="white" transform="translate(16 17)"/>
</clipPath>
</defs>
</svg>
