<svg width="65" height="66" viewBox="0 0 65 66" fill="none" xmlns="http://www.w3.org/2000/svg">
<rect x="0.50708" y="0.735596" width="64.4133" height="64.4133" rx="32.2066" fill="#00C2C2" fill-opacity="0.08"/>
<path d="M37.1052 26.4155C37.1052 26.4155 37.7763 27.0866 38.4473 28.4287C38.4473 28.4287 40.5788 25.0734 42.4736 24.4024" stroke="#00C2C2" stroke-width="1.5" stroke-linecap="round" stroke-linejoin="round"/>
<path d="M30.4141 19.7129C27.0609 19.5709 24.4704 19.9572 24.4704 19.9572C22.8346 20.0741 19.6997 20.9912 19.6997 26.347C19.6998 31.6574 19.6651 38.2039 19.6997 40.8139C19.6997 42.4083 20.687 46.1277 24.1042 46.327C28.2577 46.5693 35.7393 46.6208 39.172 46.327C40.0908 46.2752 43.1501 45.5539 43.5373 42.2254C43.9385 38.7772 43.8586 36.3806 43.8586 35.8102" stroke="#00C2C2" stroke-width="1.5" stroke-linecap="round" stroke-linejoin="round"/>
<path d="M46.5259 26.4156C46.5259 30.1216 43.5186 33.1259 39.8089 33.1259C36.0994 33.1259 33.092 30.1216 33.092 26.4156C33.092 22.7095 36.0994 19.7051 39.8089 19.7051C43.5186 19.7051 46.5259 22.7095 46.5259 26.4156Z" stroke="#00C2C2" stroke-width="1.5" stroke-linecap="round"/>
<path d="M26.3687 34.468H31.737" stroke="#00C2C2" stroke-width="1.5" stroke-linecap="round"/>
<path d="M26.3687 39.8364H37.1054" stroke="#00C2C2" stroke-width="1.5" stroke-linecap="round"/>
</svg>
