<svg width="41" height="40" viewBox="0 0 41 40" fill="none" xmlns="http://www.w3.org/2000/svg">
<mask id="mask0_1139_366" style="mask-type:luminance" maskUnits="userSpaceOnUse" x="5" y="3" width="29" height="34">
<path fill-rule="evenodd" clip-rule="evenodd" d="M5.5 3.35284H33.9203V36.442H5.5V3.35284Z" fill="white"/>
</mask>
<g mask="url(#mask0_1139_366)">
<path fill-rule="evenodd" clip-rule="evenodd" d="M13.1218 5.85284C10.3601 5.85284 8.06678 8.08951 8.00178 10.8478V28.7128C7.94178 31.5478 10.1751 33.8812 12.9834 33.9428H26.4551C29.2368 33.8428 31.4384 31.5478 31.4201 28.7212V13.8995L23.6968 5.85284H13.1418H13.1218ZM13.1418 36.4428H12.9318C8.74511 36.3528 5.41178 32.8728 5.50178 28.6862V10.8178C5.60011 6.68284 9.01345 3.35284 13.1168 3.35284H13.1468H24.2284C24.5684 3.35284 24.8934 3.49118 25.1301 3.73618L33.5734 12.5312C33.7951 12.7628 33.9201 13.0745 33.9201 13.3962V28.7128C33.9468 32.8945 30.6868 36.2928 26.4984 36.4428H13.1418Z" fill="#838384"/>
</g>
<path fill-rule="evenodd" clip-rule="evenodd" d="M32.663 14.9739H28.073C25.0213 14.9655 22.543 12.4789 22.543 9.43219V4.58386C22.543 3.89386 23.103 3.33386 23.793 3.33386C24.483 3.33386 25.043 3.89386 25.043 4.58386V9.43219C25.043 11.1055 26.403 12.4689 28.0763 12.4739H32.663C33.353 12.4739 33.913 13.0339 33.913 13.7239C33.913 14.4139 33.353 14.9739 32.663 14.9739Z" fill="#838384"/>
<path fill-rule="evenodd" clip-rule="evenodd" d="M19.0693 27.8337C18.3793 27.8337 17.8193 27.2737 17.8193 26.5837V16.5154C17.8193 15.8254 18.3793 15.2654 19.0693 15.2654C19.7593 15.2654 20.3193 15.8254 20.3193 16.5154V26.5837C20.3193 27.2737 19.7593 27.8337 19.0693 27.8337Z" fill="#838384"/>
<path fill-rule="evenodd" clip-rule="evenodd" d="M15.1617 21.691C14.8434 21.691 14.5234 21.5693 14.28 21.326C13.7917 20.8393 13.7884 20.0493 14.2767 19.5593L18.1834 15.6327C18.6534 15.161 19.4867 15.161 19.955 15.6327L23.865 19.5593C24.3517 20.0493 24.35 20.8393 23.8617 21.326C23.3717 21.8127 22.58 21.8127 22.0934 21.3227L19.07 18.286L16.0467 21.3227C15.8034 21.5693 15.4817 21.691 15.1617 21.691Z" fill="#838384"/>
</svg>
