<svg width="25" height="24" viewBox="0 0 25 24" fill="none" xmlns="http://www.w3.org/2000/svg">
<path d="M19.0586 19.5488C18.0652 16.8918 15.5034 15 12.4998 15C9.49613 15 6.93435 16.8918 5.94092 19.5488M19.0586 19.5488C21.1669 17.7154 22.4998 15.0134 22.4998 12C22.4998 6.47715 18.0226 2 12.4998 2C6.97691 2 2.49976 6.47715 2.49976 12C2.49976 15.0134 3.8326 17.7154 5.94092 19.5488M19.0586 19.5488C17.3028 21.0756 15.0092 22 12.4998 22C9.99028 22 7.69669 21.0756 5.94092 19.5488" stroke="#9D9D9D" stroke-width="1.5" stroke-linejoin="round"/>
<circle cx="3" cy="3" r="3" transform="matrix(1 0 0 -1 9.49976 12)" stroke="#9D9D9D" stroke-width="1.5" stroke-linejoin="round"/>
</svg>
