<svg width="65" height="65" viewBox="0 0 65 65" fill="none" xmlns="http://www.w3.org/2000/svg">
<rect x="0.5" y="0.460022" width="64.4133" height="64.4133" rx="32.2066" fill="#00C2C2" fill-opacity="0.08"/>
<path d="M29.0479 37.7244H32.5479V32.4744H37.7979V28.9744H32.5479V23.7244H29.0479V28.9744H23.7979V32.4744H29.0479V37.7244ZM20.2979 44.7244C19.3354 44.7244 18.5117 44.382 17.8269 43.6972C17.142 43.0123 16.799 42.1881 16.7979 41.2244V20.2244C16.7979 19.2619 17.1409 18.4383 17.8269 17.7534C18.5129 17.0686 19.3365 16.7256 20.2979 16.7244H41.2979C42.2604 16.7244 43.0846 17.0674 43.7706 17.7534C44.4566 18.4394 44.799 19.2631 44.7979 20.2244V28.0994L51.7979 21.0994V40.3494L44.7979 33.3494V41.2244C44.7979 42.1869 44.4554 43.0112 43.7706 43.6972C43.0858 44.3832 42.2615 44.7256 41.2979 44.7244H20.2979Z" fill="#008080"/>
</svg>
