<svg width="25" height="25" viewBox="0 0 25 25" fill="none" xmlns="http://www.w3.org/2000/svg">
<path d="M4.03027 4.88281L20.0303 20.8828" stroke="#9D9D9D" stroke-width="1.5" stroke-linecap="round"/>
<path d="M14.0303 15.1189C13.4995 15.594 12.7986 15.8828 12.0303 15.8828C10.3734 15.8828 9.03027 14.5397 9.03027 12.8828C9.03027 12.1145 9.31913 11.4136 9.79417 10.8828" stroke="#9D9D9D" stroke-width="1.5" stroke-linecap="round"/>
<path d="M19.638 16.4905C20.2094 15.9931 20.7205 15.4927 21.1606 15.0297C22.3202 13.8096 22.3202 11.956 21.1606 10.7359C19.2048 8.67815 15.8458 5.88281 12.0303 5.88281C11.1389 5.88281 10.2724 6.03537 9.44297 6.29545M6.53027 7.6862C5.07171 8.61725 3.82791 9.7596 2.89998 10.7359C1.74037 11.956 1.74037 13.8096 2.89998 15.0297C4.85577 17.0875 8.21476 19.8828 12.0303 19.8828C13.8984 19.8828 15.657 19.2127 17.1951 18.2872" stroke="#9D9D9D" stroke-width="1.5" stroke-linecap="round"/>
</svg>
