<svg width="101" height="101" viewBox="0 0 101 101" fill="none" xmlns="http://www.w3.org/2000/svg">
<path d="M97.3665 50.197C98.9109 48.3985 99.9931 46.2505 100.519 43.9391C101.046 41.6277 101 39.2228 100.386 36.9331C99.7728 34.6433 98.6098 32.5379 96.9983 30.7994C95.3867 29.0608 93.3754 27.7417 91.1387 26.9565C91.577 24.6268 91.4401 22.2253 90.7401 19.9603C90.0401 17.6954 88.798 15.6355 87.1216 13.9593C85.4452 12.2832 83.3851 11.0413 81.1201 10.3416C78.8551 9.64185 76.4536 9.50533 74.1239 9.94388C73.3393 7.70666 72.0204 5.69476 70.2819 4.08286C68.5433 2.47096 66.4376 1.30779 64.1476 0.694325C61.8575 0.0808631 59.4523 0.0356568 57.1408 0.562631C54.8292 1.08961 52.6813 2.17283 50.8834 3.71826C49.085 2.1739 46.9369 1.09164 44.6255 0.565398C42.3141 0.0391525 39.9092 0.0848044 37.6195 0.698392C35.3298 1.31198 33.2243 2.47497 31.4858 4.08648C29.7472 5.69799 28.4282 7.70934 27.643 9.94605C25.3134 9.5082 22.9121 9.64533 20.6475 10.3455C18.3828 11.0458 16.3233 12.2879 14.6474 13.9642C12.9714 15.6406 11.7298 17.7005 11.0302 19.9653C10.3305 22.2301 10.194 24.6314 10.6325 26.9609C8.39577 27.7461 6.38441 29.0652 4.7729 30.8037C3.16139 32.5422 1.99839 34.6477 1.3848 36.9374C0.771217 39.2272 0.725558 41.632 1.2518 43.9434C1.77805 46.2548 2.86032 48.4029 4.40469 50.2013C2.85985 51.9997 1.77725 54.1479 1.25085 56.4595C0.724456 58.7712 0.770155 61.1763 1.38401 63.4663C1.99787 65.7562 3.16131 67.8618 4.77338 69.6002C6.38544 71.3385 8.39742 72.6572 10.6346 73.4418C10.1958 75.7713 10.3322 78.1728 11.0319 80.4377C11.7316 82.7026 12.9736 84.7625 14.6499 86.4387C16.3262 88.1148 18.3863 89.3564 20.6513 90.0559C22.9163 90.7553 25.3178 90.8914 27.6473 90.4522C28.4325 92.689 29.7516 94.7003 31.4901 96.3118C33.2286 97.9233 35.3341 99.0863 37.6238 99.6999C39.9136 100.313 42.3185 100.359 44.6298 99.8329C46.9412 99.3067 49.0893 98.2244 50.8878 96.68C52.6861 98.2249 54.8344 99.3075 57.146 99.8339C59.4576 100.36 61.8628 100.315 64.1527 99.7007C66.4427 99.0868 68.5482 97.9234 70.2866 96.3113C72.025 94.6993 73.3437 92.6873 74.1282 90.4501C76.4578 90.8888 78.8593 90.7523 81.1243 90.0526C83.3893 89.3529 85.4492 88.111 87.1255 86.4347C88.8018 84.7585 90.0436 82.6985 90.7434 80.4335C91.4431 78.1686 91.5795 75.7671 91.1408 73.4374C93.3777 72.6524 95.3893 71.3334 97.0008 69.5948C98.6124 67.8562 99.7754 65.7506 100.389 63.4607C101.002 61.1708 101.048 58.7658 100.521 56.4544C99.9942 54.143 98.9114 51.9951 97.3665 50.197Z" fill="#D20606"/>
<path d="M40.7504 68.279C40.7504 66.167 40.9904 64.055 41.4704 61.943C41.9824 59.831 42.7344 57.911 43.7264 56.183C44.5264 54.551 45.3904 53.271 46.3184 52.343C47.2784 51.383 48.3664 50.407 49.5824 49.415C50.8304 48.423 52.3024 47.031 53.9984 45.239C55.3104 43.799 56.1744 42.391 56.5904 41.015C57.0384 39.607 57.2624 38.071 57.2624 36.407C57.2624 35.543 57.1664 34.711 56.9744 33.911C56.8144 33.111 56.4944 32.407 56.0144 31.799C55.2464 30.743 54.2224 29.991 52.9424 29.543C51.6944 29.063 50.3504 28.823 48.9104 28.823C47.8224 28.823 46.7504 28.951 45.6944 29.207C44.6704 29.463 43.7904 29.879 43.0544 30.455C42.1584 31.127 41.4864 31.975 41.0384 32.999C40.6224 34.023 40.4304 35.159 40.4624 36.407H26.6384C27.0224 32.983 27.9984 29.847 29.5664 26.999C31.1344 24.151 33.1664 21.911 35.6624 20.279C37.4864 19.063 39.5024 18.135 41.7104 17.495C43.9184 16.855 46.1264 16.535 48.3344 16.535C51.9824 16.535 55.4224 17.111 58.6544 18.263C61.8864 19.383 64.5584 21.239 66.6704 23.831C68.0784 25.463 69.1664 27.367 69.9344 29.543C70.7024 31.687 71.0864 33.847 71.0864 36.023C71.0864 39.511 70.3024 42.679 68.7344 45.527C67.1664 48.375 65.2304 51.031 62.9264 53.495C61.9344 54.551 61.0384 55.479 60.2384 56.279C59.4704 57.047 58.7664 57.783 58.1264 58.487C57.5184 59.159 56.9744 59.863 56.4944 60.599C55.5984 62.071 55.0544 63.271 54.8624 64.199C54.6704 65.127 54.5744 66.487 54.5744 68.279H40.7504ZM40.8464 86.999V73.175H54.5744V86.999H40.8464Z" fill="white"/>
</svg>
