<svg width="21" height="20" viewBox="0 0 21 20" fill="none" xmlns="http://www.w3.org/2000/svg">
<path d="M17.8684 2.91006C16.9516 1.98399 15.8596 1.24973 14.656 0.750111C13.4525 0.250494 12.1615 -0.00448012 10.8584 5.95696e-05C5.39841 5.95696e-05 0.948408 4.45006 0.948408 9.91006C0.948408 11.6601 1.40841 13.3601 2.26841 14.8601L0.868408 20.0001L6.11841 18.6201C7.56841 19.4101 9.19841 19.8301 10.8584 19.8301C16.3184 19.8301 20.7684 15.3801 20.7684 9.92006C20.7684 7.27006 19.7384 4.78006 17.8684 2.91006ZM10.8584 18.1501C9.37841 18.1501 7.92841 17.7501 6.65841 17.0001L6.35841 16.8201L3.23841 17.6401L4.06841 14.6001L3.86841 14.2901C3.04615 12.977 2.60955 11.4593 2.60841 9.91006C2.60841 5.37006 6.30841 1.67006 10.8484 1.67006C13.0484 1.67006 15.1184 2.53006 16.6684 4.09006C17.4359 4.85402 18.0441 5.76272 18.4578 6.76348C18.8715 7.76425 19.0824 8.83717 19.0784 9.92006C19.0984 14.4601 15.3984 18.1501 10.8584 18.1501ZM15.3784 11.9901C15.1284 11.8701 13.9084 11.2701 13.6884 11.1801C13.4584 11.1001 13.2984 11.0601 13.1284 11.3001C12.9584 11.5501 12.4884 12.1101 12.3484 12.2701C12.2084 12.4401 12.0584 12.4601 11.8084 12.3301C11.5584 12.2101 10.7584 11.9401 9.81841 11.1001C9.07841 10.4401 8.58841 9.63006 8.43841 9.38006C8.29841 9.13006 8.41841 9.00006 8.54841 8.87006C8.65841 8.76006 8.79841 8.58006 8.91841 8.44006C9.03841 8.30006 9.08841 8.19006 9.16841 8.03006C9.24841 7.86006 9.20841 7.72006 9.14841 7.60006C9.08841 7.48006 8.58841 6.26006 8.38841 5.76006C8.18841 5.28006 7.97841 5.34006 7.82841 5.33006H7.34841C7.17841 5.33006 6.91841 5.39006 6.68841 5.64006C6.46841 5.89006 5.82841 6.49006 5.82841 7.71006C5.82841 8.93006 6.71841 10.1101 6.83841 10.2701C6.95841 10.4401 8.58841 12.9401 11.0684 14.0101C11.6584 14.2701 12.1184 14.4201 12.4784 14.5301C13.0684 14.7201 13.6084 14.6901 14.0384 14.6301C14.5184 14.5601 15.5084 14.0301 15.7084 13.4501C15.9184 12.8701 15.9184 12.3801 15.8484 12.2701C15.7784 12.1601 15.6284 12.1101 15.3784 11.9901Z" fill="#00C2C2"/>
</svg>
